# xmcd
#
# Track frame offsets:
#  150
#  22442
#  70250
#  88164
#  110539
#  120682
#  138526
#  156098
#  177805
#  200452
#  251966
#  263144
#  292489
#  310714
#  319500
#
# Disc length: 4541 seconds
#
# Revision: 0
# Processed by: cddbd v1.5.1PL2 Copyright (c) Steve Scherf et al.
# Submitted via: Collectorz.com_Music_Collector 6.9
#
DISCID=e911bb0f
DTITLE=Bruce Springsteen - Cool Rockin' Daddy In The Usa - Born In The Usa Tour Compilation - Disc 2
DYEAR=1985
DGENRE=
TTITLE0=Darlington County
TTITLE1=Detroit Medley
TTITLE2=Downbound Train
TTITLE3=Drift Away
TTITLE4=Factory
TTITLE5=Fire
TTITLE6=Follow That Dream
TTITLE7=Intro To Glory Days
TTITLE8=Glory Days
TTITLE9=Growin' Up
TTITLE10=High School Confidential
TTITLE11=Highway Patrolman
TTITLE12=Hungry Heart
TTITLE13=I Fought The Law
TTITLE14=I'm A Rocker
EXTD=
EXTT0=
EXTT1=
EXTT2=
EXTT3=
EXTT4=
EXTT5=
EXTT6=
EXTT7=
EXTT8=
EXTT9=
EXTT10=
EXTT11=
EXTT12=
EXTT13=
EXTT14=
PLAYORDER=
